<svg xmlns="http://www.w3.org/2000/svg" viewBox="0 0 120 120">
  <rect width="120" height="120" rx="24" fill="#f2f3f1"/>
  <rect x="58" y="12" width="4" height="94" rx="2" fill="#2d241d"/>
  <rect x="53" y="8" width="14" height="12" rx="4" fill="#2d241d"/>
  <path d="M46 28c-12 3-20 14-20 27 0 8 4 15 11 21-7 6-11 13-11 21 0 13 8 24 20 27 7 2 12-1 17-7 5 6 10 9 17 7 12-3 20-14 20-27 0-8-4-15-11-21 7-6 11-13 11-21 0-13-8-24-20-27-7-2-12 1-17 7-5-6-10-9-17-7Z" fill="#8a4a24"/>
  <path d="M49 34c-7 3-11 10-11 18 0 7 4 12 11 18V34Z" fill="#a8622f"/>
  <path d="M71 34c7 3 11 10 11 18 0 7-4 12-11 18V34Z" fill="#6b3417"/>
  <rect x="55" y="49" width="10" height="19" rx="4" fill="#d4a066"/>
  <circle cx="60" cy="75" r="4" fill="#2d241d"/>
</svg>
